<svg width="54" height="81" viewBox="0 0 54 81" fill="none" xmlns="http://www.w3.org/2000/svg">
<path d="M53.4908 78.1093C53.7156 79.083 53.109 80.0584 52.1269 80.243C42.6068 82.0324 32.7425 80.6321 24.0757 76.2304C14.8702 71.5551 7.60195 63.7915 3.5429 54.2981C-0.516143 44.8047 -1.10746 34.1862 1.87243 24.3009C4.67793 14.994 10.4806 6.89507 18.3516 1.24861C19.1635 0.666139 20.2879 0.901448 20.8365 1.73664C21.3851 2.57183 21.1501 3.69035 20.3403 4.27581C13.178 9.45391 7.8975 16.8515 5.33709 25.3453C2.60227 34.4176 3.14496 44.1628 6.87018 52.8754C10.5954 61.5881 17.2659 68.7132 25.7143 73.004C33.624 77.0211 42.6204 78.3144 51.3123 76.7138C52.295 76.5328 53.2661 77.1357 53.4908 78.1093Z" fill="#F5EEFF" fill-opacity="0.5"/>
</svg>
