<svg width="20" height="24" viewBox="0 0 20 24" fill="none" xmlns="http://www.w3.org/2000/svg">
<path fill-rule="evenodd" clip-rule="evenodd" d="M6.03144 4.15198C6.03144 3.09945 6.44956 2.09003 7.19381 1.34578C7.93806 0.601527 8.94748 0.183411 10 0.183411C11.0525 0.183411 12.062 0.601527 12.8062 1.34578C13.5505 2.09003 13.9686 3.09945 13.9686 4.15198C13.9686 5.20451 13.5505 6.21393 12.8062 6.95819C12.062 7.70244 11.0525 8.12055 10 8.12055C8.94748 8.12055 7.93806 7.70244 7.19381 6.95819C6.44956 6.21393 6.03144 5.20451 6.03144 4.15198ZM2.19316 10.6526C3.00101 9.88565 4.07241 9.4581 5.1863 9.4581C6.30019 9.4581 7.37159 9.88565 8.17944 10.6526L8.19658 10.6697L10 12.4731L11.8052 10.6697L11.8223 10.6526C12.63 9.88666 13.7006 9.45972 14.8137 9.45972C15.9268 9.45972 16.9975 9.88666 17.8052 10.6526C18.2059 11.0333 18.5251 11.4915 18.7434 11.9993C18.9616 12.5072 19.0744 13.0541 19.0749 13.6069C19.0754 14.1597 18.9636 14.7068 18.7462 15.215C18.5288 15.7232 18.2104 16.182 17.8103 16.5634L10.5966 23.5748C10.4366 23.7304 10.2223 23.8173 9.99915 23.8173C9.77604 23.8173 9.56172 23.7304 9.40173 23.5748L2.18973 16.5634C1.7898 16.1821 1.4715 15.7236 1.25412 15.2155C1.03674 14.7075 0.92482 14.1607 0.925141 13.6081C0.925462 13.0555 1.03802 12.5088 1.25599 12.001C1.47396 11.4933 1.79279 11.0334 2.19316 10.6526Z" fill="#216FED"/>
</svg>
