<svg width="20" height="20" viewBox="0 0 20 20" fill="none" xmlns="http://www.w3.org/2000/svg">
<path d="M18.1301 2.15511C17.5337 1.64467 16.8255 1.28181 16.0629 1.09592C15.3002 0.910032 14.5045 0.906328 13.7401 1.08511C12.2034 1.42158 10.8604 2.34809 10.0001 3.66511C9.14456 2.35236 7.80942 1.42637 6.2801 1.08511C5.51917 0.902335 4.72635 0.897475 3.96324 1.07091C3.20013 1.24434 2.48728 1.5914 1.8801 2.08511C0.3001 3.46511 -0.5699 6.52511 0.4201 9.62511C0.5321 9.96778 0.665433 10.3011 0.8201 10.6251C0.8601 10.7004 0.896767 10.7771 0.9301 10.8551C3.5001 16.0951 9.4401 18.8551 9.7001 18.9851C9.7967 19.0319 9.90277 19.0559 10.0101 19.0551C10.1174 19.0559 10.2235 19.0319 10.3201 18.9851C10.5701 18.8751 16.5701 16.1351 19.1201 10.8351L19.2001 10.6651C19.3581 10.3251 19.4948 9.97511 19.6101 9.61511C20.5501 6.61511 19.6901 3.55511 18.1301 2.15511ZM17.8201 10.0851C17.6801 10.3991 17.5201 10.7024 17.3401 10.9951H14.0301C13.8654 10.9943 13.7034 10.9527 13.5586 10.8742C13.4139 10.7957 13.2907 10.6827 13.2001 10.5451L12.1501 8.98511L9.9201 13.4451C9.84966 13.5863 9.7468 13.7089 9.61992 13.8027C9.49305 13.8966 9.34576 13.9591 9.1901 13.9851H9.0301C8.89779 13.9846 8.76691 13.9578 8.64503 13.9063C8.52316 13.8548 8.41271 13.7796 8.3201 13.6851L5.6101 10.9851H2.7001C2.5161 10.6611 2.34943 10.3278 2.2001 9.98511C2.04531 9.66315 1.91819 9.32862 1.8201 8.98511H6.0301C6.16171 8.98435 6.29217 9.00958 6.41401 9.05934C6.53584 9.10911 6.64666 9.18243 6.7401 9.27511L8.7401 11.2751L11.1201 6.51511C11.1992 6.35752 11.3186 6.22364 11.4661 6.12705C11.6136 6.03046 11.784 5.97459 11.9601 5.96511C12.1339 5.95461 12.3075 5.98969 12.4636 6.06686C12.6197 6.14403 12.7529 6.26063 12.8501 6.40511L14.5501 8.96511H18.2501C18.1408 9.35178 17.9974 9.72511 17.8201 10.0851Z" fill="#DEB400"/>
</svg>
